<?xml version="1.0" standalone="no"?><!DOCTYPE svg PUBLIC "-//W3C//DTD SVG 1.1//EN" "http://www.w3.org/Graphics/SVG/1.1/DTD/svg11.dtd"><svg t="1491917982807" class="icon" style="" viewBox="0 0 2048 1024" version="1.1" xmlns="http://www.w3.org/2000/svg" p-id="5767" xmlns:xlink="http://www.w3.org/1999/xlink" width="32" height="16"><defs><style type="text/css"></style></defs><path d="M236.24704 290.03776c-130.49856 0-236.24704 105.84064-236.24704 236.47232 0 130.56 105.74848 236.50304 236.24704 236.50304s236.24704-105.9328 236.24704-236.50304C472.50432 395.88864 366.75584 290.03776 236.24704 290.03776zM1024 290.03776c-130.49856 0-236.24704 105.84064-236.24704 236.47232 0 130.56 105.74848 236.50304 236.24704 236.50304 130.49856 0 236.25728-105.9328 236.25728-236.50304C1260.25728 395.88864 1154.49856 290.03776 1024 290.03776zM1811.75296 290.03776c-130.49856 0-236.24704 105.84064-236.24704 236.47232 0 130.56 105.74848 236.50304 236.24704 236.50304s236.2368-105.9328 236.2368-236.50304C2048.01024 395.88864 1942.26176 290.03776 1811.75296 290.03776z" p-id="5768" fill="#ffffff"></path></svg>