<?xml version="1.0" standalone="no"?><!DOCTYPE svg PUBLIC "-//W3C//DTD SVG 1.1//EN" "http://www.w3.org/Graphics/SVG/1.1/DTD/svg11.dtd"><svg t="1491831816351" class="icon" style="" viewBox="0 0 1024 1024" version="1.1" xmlns="http://www.w3.org/2000/svg" p-id="2081" xmlns:xlink="http://www.w3.org/1999/xlink" width="16" height="16"><defs><style type="text/css"></style></defs><path d="M378.407385 443.628308C379.247594 418.001924 382.503356 397.942225 388.174769 383.448615 393.846181 368.955004 403.403422 355.721906 416.846769 343.748923 430.290117 331.77594 445.308637 322.953875 461.902769 317.282462 478.496902 311.611049 495.615913 308.775385 513.260308 308.775385 550.649624 308.775385 581.211778 319.382868 604.947692 340.598154 628.683607 361.813439 640.551385 390.275104 640.551385 425.984 640.551385 444.048502 636.980547 459.592141 629.838769 472.615385 622.696992 485.638628 607.153349 503.282759 583.207385 525.548308 557.160897 550.334484 541.197158 568.60876 535.315692 580.371692 529.434226 592.134624 526.493538 611.669197 526.493538 638.976L483.012923 638.976C483.853131 614.189824 487.844068 593.289933 494.985846 576.275692 502.127624 559.261452 517.776289 538.361561 541.932308 513.575385 566.088326 488.789209 581.211869 471.250101 587.303385 460.957538 593.394901 450.664976 596.440615 437.746948 596.440615 422.203077 596.440615 398.677216 588.773821 379.772789 573.44 365.489231 558.106179 351.205672 537.416334 344.064 511.369846 344.064 455.07582 344.064 424.408639 377.251771 419.367385 443.628308L378.407385 443.628308ZM530.904615 749.883077 482.382769 749.883077 482.382769 698.210462 530.904615 698.210462 530.904615 749.883077Z" p-id="2082" fill="#1afa29"></path><path d="M512 1004.307692C783.894032 1004.307692 1004.307692 783.894032 1004.307692 512 1004.307692 240.105969 783.894032 19.692308 512 19.692308 240.105969 19.692308 19.692308 240.105969 19.692308 512 19.692308 783.894032 240.105969 1004.307692 512 1004.307692L512 1004.307692ZM512 964.923077C261.857492 964.923077 59.076923 762.142507 59.076923 512 59.076923 261.857492 261.857492 59.076923 512 59.076923 762.142507 59.076923 964.923077 261.857492 964.923077 512 964.923077 762.142507 762.142507 964.923077 512 964.923077L512 964.923077Z" p-id="2083" fill="#1afa29"></path></svg>