<?xml version="1.0" standalone="no"?><!DOCTYPE svg PUBLIC "-//W3C//DTD SVG 1.1//EN" "http://www.w3.org/Graphics/SVG/1.1/DTD/svg11.dtd"><svg t="1493512080751" class="icon" style="" viewBox="0 0 1024 1024" version="1.1" xmlns="http://www.w3.org/2000/svg" p-id="2383" xmlns:xlink="http://www.w3.org/1999/xlink" width="16" height="16"><defs><style type="text/css"></style></defs><path d="M527.539416 954.232007c-61.953004 0-122.05894-12.136412-178.649819-36.07359-54.653761-23.11751-103.736643-56.210209-145.884578-98.358145-42.147936-42.147936-75.240635-91.229794-98.358145-145.884578-23.937179-56.589856-36.07359-116.696816-36.07359-178.649819 0-61.953004 12.136412-122.057917 36.07359-178.64368 23.11751-54.649668 56.210209-103.728456 98.358145-145.871275 42.147936-42.142819 91.229794-75.230402 145.884578-98.343819 56.588833-23.932062 116.694769-36.06745 178.648796-36.06745 61.953004 0 122.056893 12.134365 178.642656 36.06745 54.650691 23.113417 103.728456 56.201 145.872299 98.343819 42.142819 42.142819 75.230402 91.221608 98.343819 145.871275 23.932062 56.585763 36.066427 116.689652 36.066427 178.64368s-12.134365 122.05894-36.066427 178.648796c-23.11444 54.654784-56.202023 103.737666-98.343819 145.885602-42.143842 42.147936-91.221608 75.240635-145.871275 98.358145C649.59631 942.095595 589.49242 954.232007 527.539416 954.232007zM527.539416 57.704237c-241.294578 0-437.601546 196.289572-437.601546 437.562661 0 241.294578 196.306968 437.601546 437.601546 437.601546 241.272066 0 437.562661-196.306968 437.562661-437.601546C965.102077 253.993808 768.811482 57.704237 527.539416 57.704237z" p-id="2384" fill="#1afa29"></path><path d="M527.539416 959.348538c-62.641689 0-123.418914-12.272511-180.642197-36.476773-55.263651-23.376407-104.892979-56.836473-147.509588-99.453083-42.61661-42.615587-76.076676-92.244914-99.45206-147.508565-24.204262-57.222259-36.477796-118.000508-36.477796-180.642197 0-62.642712 12.273535-123.416867 36.477796-180.63708 23.375383-55.259558 56.836473-104.884792 99.453083-147.496286 42.61661-42.611493 92.245937-76.066443 147.509588-99.437733 57.223283-24.200168 117.999484-36.471656 180.641173-36.471656s123.415844 12.270465 180.635033 36.471656c55.260581 23.37129 104.885815 56.827263 147.497309 99.438757 42.61047 42.61047 76.066443 92.234681 99.438757 147.496286 24.200168 57.220213 36.471656 117.995391 36.471656 180.636057 0 62.640666-12.270465 123.416867-36.470633 180.641173-23.373337 55.265698-56.828286 104.895025-99.438757 147.509588-42.612517 42.61661-92.237751 76.078723-147.496286 99.453083C650.956284 947.076026 590.181105 959.348538 527.539416 959.348538zM527.539416 41.457204c-61.265342 0-120.699989 11.999288-176.655396 35.663244-54.04387 22.855544-102.580307 55.57576-144.260591 97.249905-41.680285 41.675168-74.40357 90.206488-97.263208 144.246265-23.668049 55.951313-35.669384 115.38596-35.669384 176.650279s12.001335 120.701013 35.669384 176.655396c22.859637 54.04387 55.582923 102.580307 97.263208 144.260591 41.679261 41.679261 90.215698 74.404594 144.259568 97.264231 55.955406 23.668049 115.391077 35.668361 176.656419 35.668361 61.264319 0 120.697943-12.001335 176.650279-35.668361 54.039777-22.859637 102.571097-55.582923 144.246265-97.264231 41.675168-41.678238 74.393337-90.214674 97.249905-144.260591 23.663956-55.95643 35.663244-115.3921 35.663244-176.655396 0-61.264319-11.999288-120.697943-35.663244-176.650279-22.856567-54.041824-55.576783-102.573143-97.248881-144.246265-41.676192-41.675168-90.207511-74.394361-144.247288-97.249905C648.237359 53.455469 588.803735 41.457204 527.539416 41.457204zM527.539416 937.984974c-244.115833 0-442.718077-198.602244-442.718077-442.718077 0-244.094344 198.603267-442.679192 442.718077-442.679192 244.093321 0 442.679192 198.585871 442.679192 442.679192C970.218608 739.382731 771.632737 937.984974 527.539416 937.984974zM527.539416 62.820768c-238.473323 0-432.485015 193.994296-432.485015 432.44613 0 238.473323 194.011692 432.485015 432.485015 432.485015 238.451834 0 432.44613-194.012715 432.44613-432.485015C959.985546 256.815063 765.99125 62.820768 527.539416 62.820768z" p-id="2385" fill="#1afa29"></path><path d="M527.539416 953.334567c-252.579599 0-458.06767-205.489094-458.06767-458.06767 0-252.55811 205.488071-458.028784 458.06767-458.028784 252.55811 0 458.028784 205.471698 458.028784 458.028784C985.568201 747.846496 780.097526 953.334567 527.539416 953.334567zM527.539416 57.704237c-241.294578 0-437.601546 196.289572-437.601546 437.562661 0 241.294578 196.306968 437.601546 437.601546 437.601546 241.272066 0 437.562661-196.306968 437.562661-437.601546C965.102077 253.993808 768.811482 57.704237 527.539416 57.704237z" p-id="2386" fill="#1afa29"></path><path d="M527.539416 958.451098c-255.400854 0-463.184201-207.78437-463.184201-463.184201 0-255.379365 207.783347-463.145315 463.184201-463.145315 255.379365 0 463.145315 207.765951 463.145315 463.145315C990.684732 750.666728 782.918781 958.451098 527.539416 958.451098zM527.539416 42.354644c-249.758344 0-452.951139 203.175399-452.951139 452.912253 0 249.758344 203.192795 452.951139 452.951139 452.951139 249.736854 0 452.912253-203.192795 452.912253-452.951139C980.45167 245.530043 777.276271 42.354644 527.539416 42.354644zM527.539416 937.984974c-244.115833 0-442.718077-198.602244-442.718077-442.718077 0-244.094344 198.603267-442.679192 442.718077-442.679192 244.093321 0 442.679192 198.585871 442.679192 442.679192C970.218608 739.382731 771.632737 937.984974 527.539416 937.984974zM527.539416 62.820768c-238.473323 0-432.485015 193.994296-432.485015 432.44613 0 238.473323 194.011692 432.485015 432.485015 432.485015 238.451834 0 432.44613-194.012715 432.44613-432.485015C959.985546 256.815063 765.99125 62.820768 527.539416 62.820768z" p-id="2387" fill="#1afa29"></path><path d="M184.460664 798.700721 170.094468 781.576715l6.526647-6.621814c3.626597-3.679809 7.377014-7.328919 11.147898-10.847046 25.702382-23.979134 56.480362-46.197158 91.478458-66.035996 41.424458-23.482831 88.948845-43.701315 141.354402-60.144822-1.076518-77.464279-17.323551-96.360651-18.282389-97.4034l-0.724501-0.692778c-5.396917-5.659907-52.5611-56.551994-46.785559-99.916641 1.690502-12.679787 7.874341-23.617907 18.025539-32.032554-27.522844-78.193897-25.570375-139.074476 5.831822-181.038216 25.659403-34.290991 66.095347-48.347125 95.498004-54.100152 19.460214-3.807722 36.747949-4.606925 47.825238-4.606925 6.063089 0 9.618055 0.248663 9.653871 0.25071l10.199293 0.725524-1.562589 22.212908-10.220782-0.732687 0 0c0 0-2.992147-0.195451-8.080026-0.195451-10.096962 0-25.854854 0.728594-43.584658 4.202719-25.551956 5.006014-60.504002 16.978696-81.907475 45.587268-27.638477 36.941354-27.596522 93.454462 0.124843 167.969573l3.211135 8.633634-7.879458 4.76963c-8.949836 5.417383-13.877055 12.384052-15.064091 21.295002-3.637854 27.311019 27.643594 67.511603 40.473807 81.236186 6.773264 6.04467 25.569352 31.091112 25.569352 122.031311l0 8.244778-7.887644 2.403746c-122.019031 37.052894-193.552228 87.674828-232.076636 123.616412-3.597945 3.357468-7.167237 6.828522-10.609639 10.317996L184.460664 798.700721z" p-id="2388" fill="#1afa29"></path><path d="M184.154695 806.296723l-20.971637-24.996301 9.794064-9.936303c3.681856-3.735068 7.484462-7.435343 11.301394-10.996448 25.995047-24.251334 57.097416-46.708811 92.444459-66.74617 40.748053-23.099091 87.394443-43.083238 138.695852-59.421344-1.463328-69.864184-15.719007-88.800465-16.806781-90.140996l-0.721431-0.696872c-5.569856-5.842055-54.244438-58.395992-48.15372-104.122429 1.694595-12.710486 7.597025-24.02416 17.134239-32.924877-26.91807-78.329996-24.333198-139.731438 7.697309-182.535313 26.635637-35.594683 68.327178-50.129724 98.611925-56.05569 19.863397-3.886517 37.505195-4.702092 48.807612-4.702092 6.271844 0 9.983375 0.260943 10.020214 0.264013l15.294334 1.087774-2.28095 32.423457-15.331173-1.099031 0 0c-0.00307 0-2.894933-0.182149-7.713682-0.182149-9.870812 0-25.27464 0.712221-42.60126 4.107551-24.669866 4.833075-58.366316 16.32685-78.794577 43.630706-26.529213 35.459606-26.251897 90.340541 0.822738 163.120125l4.686742 12.600993-11.500938 6.962575c-7.642051 4.626367-11.659551 10.216689-12.641925 17.59268-3.352351 25.172309 26.863834 63.883983 38.992059 76.908624 8.299013 7.556093 27.096125 34.747385 27.096125 125.683491l0 12.034081-11.512195 3.508917c-121.082706 36.768415-191.948707 86.889953-230.078119 122.463146-3.558036 3.320629-7.076162 6.742565-10.456143 10.169617L184.154695 806.296723zM177.005878 781.854031l7.760754 9.250688 3.938706-3.991917c3.478218-3.527336 7.099698-7.049556 10.761088-10.466376 38.921451-36.31202 111.125937-87.434352 234.08027-124.771725l4.256954-1.297552 0-4.455475c0-89.931219-18.262946-113.218598-23.859407-118.213355l-0.330528-0.323365c-0.465604-0.497327-46.496987-50.201355-41.808198-85.405135 1.385557-10.400884 7.269567-18.810415 17.486256-24.996301l4.257977-2.577708-1.735527-4.665253c-28.366048-76.249615-28.172643-134.393873 0.575098-172.817997 22.378683-29.912263 58.586326-42.363853 85.020372-47.542806 18.131963-3.551896 34.244942-4.297886 44.569078-4.297886 5.194302 0 8.283664 0.197498 8.413624 0.206708l5.142114 0.36839 0.845251-12.002358-5.099135-0.36225c-0.030699-0.002047-3.483334-0.237407-9.290597-0.237407-10.850116 0-27.783787 0.782829-46.842865 4.511757-28.520567 5.581112-67.699891 19.157315-92.38306 52.144614-30.302143 40.494273-32.019251 99.80203-5.102205 176.273702l1.183965 3.362584-2.744507 2.27481c-9.237385 7.658424-14.694677 17.337877-16.219403 28.770254-5.433756 40.797172 39.742143 89.743954 45.336558 95.624894l0.86674 0.843204c1.895163 2.058892 18.544355 22.37766 19.634176 100.796684l0.053212 3.811816-3.63683 1.140986c-52.05354 16.33299-99.278097 36.424584-140.363841 59.71401-34.649148 19.642362-65.101717 41.621956-90.511433 65.326844-3.713578 3.463891-7.41283 7.062859-10.994402 10.69662L177.005878 781.854031z" p-id="2389" fill="#1afa29"></path><path d="M870.5844 798.683325l-7.878434-8.000208c-3.448542-3.501754-7.04137-6.996344-10.6782-10.386558C813.512566 744.383628 742.010069 693.801603 620.093369 656.774291l-7.895831-2.40477 0-8.245801c0-91.316775 18.655895-116.079762 25.598005-122.103966 12.865006-13.809517 44.019563-53.950749 40.389896-81.149205-1.190105-8.916067-6.124488-15.885805-15.08558-21.307282l-7.880481-4.776793 3.211135-8.627495c27.721365-74.52739 27.759227-131.047662 0.109494-167.989015-21.418822-28.616758-56.395428-40.584324-81.96785-45.584198-17.704221-3.460822-33.431414-4.187369-43.50791-4.187369-5.105275 0-8.136308 0.197498-8.165983 0.199545l-10.171664 0.676405-1.570775-22.196535 10.239202-0.690732c0.3776-0.025583 3.858888-0.249687 9.653871-0.249687 11.072173 0 28.352745 0.798179 47.796586 4.598738 29.408797 5.749958 69.853951 19.800975 95.51847 54.091966 31.407314 41.962717 33.364899 102.846366 5.842055 181.050496 10.162454 8.417717 16.353456 19.361977 18.047028 32.047904 5.78168 43.348274-41.370223 94.244454-46.765093 99.904361l-0.862647 0.811482c-1.01819 1.095961-17.046235 19.671015-18.107403 97.284697 52.399417 16.444531 99.916641 36.663014 141.332912 60.144822 34.987862 19.836791 65.762773 42.054815 91.466178 66.037019 3.773953 3.520173 7.518231 7.16519 11.127432 10.829649l6.513344 6.613628-7.135514 8.544607L870.5844 798.683325zM652.553665 540.704762l-0.480954 0.378623C652.093177 541.068036 652.271232 540.964682 652.553665 540.704762z" p-id="2390" fill="#1afa29"></path><path d="M870.879112 806.27421l-11.818163-12.002358c-3.396353-3.447519-6.935969-6.890944-10.521634-10.234085-38.120203-35.543517-108.955504-85.627193-229.931786-122.369002l-11.525498-3.50994 0-12.036128c0-91.453898 18.801205-118.358665 27.14115-125.776611 12.117992-13.065574 42.231847-51.761897 38.890752-76.800153-0.985444-7.382131-5.009084-12.976546-12.662391-17.605983l-11.504008-6.972808 4.687766-12.593829c27.075659-72.791863 27.347858-127.679961 0.808412-163.138544-20.443611-27.313066-54.16462-38.801724-78.852906-43.62866-17.303085-3.382027-32.677237-4.092201-42.526559-4.092201-4.915963 0-7.789407 0.186242-7.818059 0.188288l-15.264659 1.01512-2.293229-32.398898 15.360849-1.036609c0.396019-0.026606 4.03899-0.260943 9.998725-0.260943 11.298324 0 28.930913 0.814552 48.777937 4.693906 30.292933 5.922896 71.993684 20.453844 98.633415 56.047504 32.03767 42.803875 34.626635 104.208387 7.708566 182.547593 9.549493 8.903787 15.458063 20.222577 17.155728 32.939203 6.097882 45.714158-42.564421 98.269118-48.133254 104.112196l-0.881067 0.839111c-1.079588 1.320065-15.167444 19.938098-16.610306 89.998757 51.29527 16.340153 97.93552 36.323277 138.675386 59.421344 35.338856 20.035312 66.438155 42.491767 92.433202 66.747193 3.811816 3.555989 7.608282 7.250124 11.281951 10.980076l9.770528 9.920954-10.110265 12.106736L870.879112 806.27421zM617.314069 650.579195l4.269233 1.300622c122.849956 37.311791 195.021695 88.393189 233.933937 124.674511 3.690042 3.441379 7.336082 6.987135 10.833743 10.539031l3.939729 4.000104 7.762801-9.255805-3.257184-3.305279c-3.573385-3.62762-7.265474-7.221472-10.971889-10.679223-25.409716-23.708981-55.858192-45.687552-90.499154-65.327868-41.077557-23.289426-88.294952-43.38102-140.342352-59.71401l-3.63683-1.140986 0.052189-3.810792c1.076518-78.653361 17.594727-98.673323 19.475564-100.697423l0.058328-0.062422-0.026606-0.034792 0.336668-0.265036 0.63445-0.597611c5.65479-5.948479 50.737568-54.848189 45.302789-95.597265-1.526773-11.438517-6.990205-21.123087-16.238846-28.783557l-2.746554-2.27481 1.182942-3.363607c26.917046-76.479859 25.196869-135.791709-5.111414-176.285982-24.688285-32.987299-63.87682-46.559409-92.403526-52.136428-19.042705-3.722788-35.969213-4.503571-46.815235-4.503571-5.623068 0-8.947789 0.212848-9.309016 0.237407l-5.117554 0.344854 0.848321 11.994172 5.088902-0.338714-0.001023 0c0.00307 0 3.113921-0.211824 8.506744-0.211824 10.301623 0 26.38288 0.74292 44.48926 4.282536 26.454512 5.172813 62.687738 17.619286 85.082794 47.540759 28.758997 38.423101 28.956495 96.574522 0.589424 172.838464l-1.734504 4.662183 4.261047 2.582825c10.224876 6.185886 16.116049 14.59951 17.504676 25.00551 4.677533 35.051307-41.252543 84.815711-41.718147 85.314061l-0.38988 0.376577c-5.591345 4.852518-23.834848 27.722388-23.834848 118.239961L617.313046 650.579195z" p-id="2391" fill="#1afa29"></path><path d="M527.539416 955.129446c-62.072731 0-122.29737-12.160971-178.998767-36.144198-54.761208-23.162536-103.94028-56.319703-146.170081-98.549503s-75.386968-91.407849-98.549503-146.170081c-23.984251-56.701396-36.144198-116.926036-36.144198-178.997744 0-62.073754 12.160971-122.295324 36.144198-178.99365 23.162536-54.756091 56.319703-103.930047 98.550527-146.155754 42.22673-42.222637 91.405803-75.374688 146.170081-98.5362 56.701396-23.979134 116.925013-36.138058 178.997744-36.138058 62.073754 0 122.295324 12.158924 178.991604 36.138058 54.760185 23.160489 103.933117 56.31254 146.156778 98.5362 42.225707 42.22673 75.377758 91.400686 98.5362 146.156778 23.979134 56.69321 36.137035 116.91478 36.137035 178.99365 0 62.074777-12.158924 122.298394-36.137035 178.997744-23.159466 54.762231-56.311517 103.94028-98.537224 146.169057-42.222637 42.2298-91.396593 75.386968-146.155754 98.550527C649.83474 942.968475 589.612147 955.129446 527.539416 955.129446zM527.539416 55.910381c-59.319014 0-116.860545 11.614525-171.026188 34.521235-52.324716 22.128997-99.316983 53.80851-139.67004 94.158497-40.358173 40.35408-72.042803 87.341231-94.172823 139.65776C99.759563 378.409422 88.142991 435.948907 88.142991 495.26792c0 59.31799 11.616572 116.860545 34.527374 171.025165 22.131043 52.321646 53.81465 99.313913 94.1718 139.67004 40.35715 40.35715 87.348394 72.040756 139.671063 94.1718 54.165644 22.910802 111.707175 34.527374 171.026188 34.527374 59.319014 0 116.857475-11.617595 171.019025-34.527374 52.318576-22.132066 99.305727-53.815673 139.656737-94.170776 40.352033-40.356127 72.03257-87.34737 94.160543-139.671063 22.906709-54.163597 34.520211-111.704105 34.520211-171.025165 0-59.32413-11.614525-116.863614-34.520211-171.020048-22.12695-52.316529-53.806463-99.30368-94.15952-139.65776-40.349987-40.349987-87.338161-72.0295-139.65776-94.158497C644.397914 67.524906 586.859453 55.910381 527.539416 55.910381z" p-id="2392" fill="#1afa29"></path><path d="M527.539416 953.782775c-252.827239 0-458.516902-205.689662-458.516902-458.516902 0-252.804726 205.689662-458.476993 458.516902-458.476993 252.80575 0 458.476993 205.672266 458.476993 458.476993C986.016409 748.093113 780.345166 953.782775 527.539416 953.782775zM527.539416 58.152445c-241.046938 0-437.153338 196.089004-437.153338 437.113429 0 241.046938 196.1064 437.153338 437.153338 437.153338 241.025449 0 437.113429-196.1064 437.113429-437.153338C964.652845 254.240425 768.564865 58.152445 527.539416 58.152445z" p-id="2393" fill="#1afa29"></path></svg>