<?xml version="1.0" standalone="no"?><!DOCTYPE svg PUBLIC "-//W3C//DTD SVG 1.1//EN" "http://www.w3.org/Graphics/SVG/1.1/DTD/svg11.dtd"><svg t="1491831315149" class="icon" style="" viewBox="0 0 1024 1024" version="1.1" xmlns="http://www.w3.org/2000/svg" p-id="1156" xmlns:xlink="http://www.w3.org/1999/xlink" width="16" height="16"><defs><style type="text/css"></style></defs><path d="M3.951488 777.020684l-0.15806 134.734465 134.892525 0 0-134.734465L3.951488 777.020684zM273.397839 777.020684l0 134.734465 746.763572 0-0.04516-134.734465L273.397839 777.020684zM3.951488 444.824697l-0.15806 134.757045 134.892525 0L138.685954 444.824697 3.951488 444.824697zM273.397839 444.824697l0 134.757045 746.763572 0L1020.138831 444.824697 273.397839 444.824697zM3.951488 112.67387l-0.15806 134.734465 134.892525 0L138.685954 112.67387 3.951488 112.67387zM1020.138831 112.53839 273.397839 112.67387l0 134.734465 746.763572 0L1020.138831 112.53839z" p-id="1157" fill="#1afa29"></path></svg>