<?xml version="1.0" standalone="no"?><!DOCTYPE svg PUBLIC "-//W3C//DTD SVG 1.1//EN" "http://www.w3.org/Graphics/SVG/1.1/DTD/svg11.dtd"><svg t="1493898536375" class="icon" style="" viewBox="0 0 1024 1024" version="1.1" xmlns="http://www.w3.org/2000/svg" p-id="2364" xmlns:xlink="http://www.w3.org/1999/xlink" width="16" height="16"><defs><style type="text/css"></style></defs><path d="M930.482123 311.182859c-9.383051-11.284426-22.97205-17.067349-36.561049-17.067349-10.839271 0-21.759386 3.639015-30.656348 11.161625L527.536936 586.955932l-335.728814-281.678798c-8.895939-7.523633-19.817077-11.161625-30.655325-11.161625-13.588999 0-27.179021 5.782923-36.562072 17.067349-16.986505 20.141477-14.397442 50.271826 5.823857 67.21842L496.192901 685.293252c9.111864 7.648481 20.275536 11.300799 31.345059 11.147298 11.067477 0.153502 22.232171-3.498817 31.343012-11.147298l365.697474-306.891973C944.799744 361.454685 947.468628 331.324336 930.482123 311.182859z" p-id="2365" fill="#1afa29"></path></svg>