<?xml version="1.0" standalone="no"?><!DOCTYPE svg PUBLIC "-//W3C//DTD SVG 1.1//EN" "http://www.w3.org/Graphics/SVG/1.1/DTD/svg11.dtd"><svg t="1494062134759" class="icon" style="" viewBox="0 0 1024 1024" version="1.1" xmlns="http://www.w3.org/2000/svg" p-id="2363" xmlns:xlink="http://www.w3.org/1999/xlink" width="32" height="32"><defs><style type="text/css"></style></defs><path d="M328.148213 128.662716l335.366228 383.177593L323.756721 900.048157l0 0.063876c-11.082528 13.046722-17.917285 30.995945-17.917285 50.829518 0 40.337845 28.664463 73.058449 64.003992 73.058449 17.262554 0 32.944171-7.824839 44.457863-20.504273l0 0 384.007985-438.829767 0 0c11.992764-13.270289 19.562098-31.93812 19.562098-52.554176 0-0.111783 0-0.159691 0-0.223567s0-0.111783 0-0.17566c0-20.616056-7.569334-39.267918-19.562098-52.602083l0 0-384.007985-438.829767-0.207598 0.111783c-11.481754-12.615557-27.051588-20.39249-44.298172-20.39249-35.33953 0-64.003992 32.78448-64.003992 73.170233C305.791529 95.319319 314.478698 115.200798 328.148213 128.662716z" p-id="2364" fill="#cdcdcd"></path></svg>